PathFileType	4	(X/Y/Z)	Patient4_TMGait_0pt7_01_right_43.trc.trc
DataRate	CameraRate	NumFrames	NumMarkers	Units	OrigDataRate	OrigDataStartFrame	OrigNumFrames
84.337349397591	84.337349397591	5	33	mm	84.337349397591	53	       141
Frame#	Time	Sacral			L.Shoulder			Chest			R.Shoulder			Neck			R.ASIS			L.ASIS			R.Thigh.Superior			R.Thigh.Lateral			R.Thigh.Inferior			R.Patella			L.Thigh.Superior			L.Thigh.Lateral			L.Thigh.Inferior			L.Patella			L.Shank.Superior			L.Shank.Lateral			L.Shank.Inferior			R.Shank.Superior			R.Shank.Lateral			R.Shank.Inferior			R.Heel			R.Midfoot.Superior			R.Midfoot.Lateral			R.Toe			L.Heel			L.Midfoot.Lateral			L.Midfoot.Superior			L.Toe			L.Elbow			L.Wrist			R.Elbow			R.Wrist			
		X1	Y1	Z1	X2	Y2	Z2	X3	Y3	Z3	X4	Y4	Z4	X5	Y5	Z5	X6	Y6	Z6	X7	Y7	Z7	X8	Y8	Z8	X9	Y9	Z9	X10	Y10	Z10	X11	Y11	Z11	X12	Y12	Z12	X13	Y13	Z13	X14	Y14	Z14	X15	Y15	Z15	X16	Y16	Z16	X17	Y17	Z17	X18	Y18	Z18	X19	Y19	Z19	X20	Y20	Z20	X21	Y21	Z21	X22	Y22	Z22	X23	Y23	Z23	X24	Y24	Z24	X25	Y25	Z25	X26	Y26	Z26	X27	Y27	Z27	X28	Y28	Z28	X29	Y29	Z29	X30	Y30	Z30	X31	Y31	Z31	X32	Y32	Z32	X33	Y33	Z33	

53	49.856571428571	808.228106817433	1014.341516150987	520.968364856181	984.929300313482	1434.569563115684	322.073214539392	1106.509266715075	1354.515233737648	465.651655834763	1056.552551923660	1434.271313504242	649.547136737973	1016.650687965949	1493.275723375227	474.774385834318	1041.665182988562	944.643947317869	618.488412930228	1003.401213672349	961.464364536896	345.506676804022	1063.975130878224	739.809373531364	594.318004362029	971.924805143714	636.989585369945	653.132187446903	1043.918013089308	579.410830316195	574.124946568120	1036.381411407623	495.342058758900	578.408838223860	1094.208202547552	793.792135733886	368.519168720696	1054.548369600589	664.789240190257	289.151673132801	1165.893330115542	609.117639536773	341.739020519944	1187.787634447109	524.398833584853	332.229303701381	1136.164630086296	449.448900160776	327.328751814717	1007.869016412521	374.562644552124	282.517401852581	1030.356316317404	245.485488407309	335.468393694261	1010.615388799084	407.858883364979	582.876377386808	939.378248549118	301.459793945508	639.890644852864	987.492368307521	209.096685472831	575.098178124707	859.040958375765	42.095404970724	536.210264540543	1029.923544763026	97.548974434782	573.634782045723	942.137681050447	36.428544869753	610.504541051967	1150.115793297223	46.630806462390	599.995946940771	865.402204279839	131.967357195321	378.358605395579	928.414238742890	107.380991012163	293.439841725926	1028.627495375262	141.801670926061	311.952878217330	1131.122975246767	55.921549902795	273.973441342606	883.822654028137	1092.110031443264	225.981564475860	927.820265688304	833.223092753958	222.980284294211	1113.735349844143	1092.475655679126	775.599635055566	1309.010796596563	922.082815853008	740.060743733346	
54	49.868428571429	807.830736455166	1014.672743572134	521.751782143420	983.807620103761	1434.257593738439	321.960286718456	1106.229241023517	1354.348024075381	464.868011295703	1057.546708890636	1434.325530609973	649.029352814357	1016.385501007233	1493.139065487798	474.489360344912	1041.389555381772	944.376303320516	618.377084762127	1002.383233030897	961.469853900311	345.373403964985	1060.930137910559	738.830931559376	593.416484763118	968.108707350636	636.879276666689	653.163000160250	1038.602487611069	578.473741043879	573.709427557047	1030.187262189935	494.719899041148	577.989838127925	1093.794705685671	795.387016396847	369.487239558802	1056.097422121579	666.105661971161	289.425086806652	1167.101853837938	611.398780694631	343.188993032049	1190.786767782713	528.310190177484	333.381306206820	1142.901094917552	452.358514091742	327.540428055518	1019.817328892377	370.258272726625	281.397012497007	1050.011954931172	242.270001163097	333.702515749191	1003.975246142038	407.500882907243	582.418496282545	932.741258061213	301.378226754579	639.897214025959	979.995375524573	208.852771938095	574.724546306422	850.716455505171	42.130131689326	536.188803869626	1021.655703525458	97.420716389544	573.544667874407	933.796449263684	36.472040486048	610.502445783273	1141.830799929064	46.161639577305	600.079579508414	892.430322150612	118.470130454691	375.090972920785	957.182322819161	98.392855543196	290.343960651618	1054.948189840067	138.678007125102	309.624619046430	1162.635693648318	59.454328200902	271.733180149317	876.328430623414	1093.302304353588	228.035368612389	903.613847244073	832.308664001915	225.417717459952	1122.959274600779	1094.368491723381	774.474422286570	1326.939040805377	936.070962308202	734.007604357325	
55	49.880285714286	807.542135496943	1014.930024862141	522.363586112568	982.814821955438	1433.917178389844	321.740310453011	1106.036161251205	1354.090130041385	463.976848360049	1058.599460809371	1434.264898524562	648.399583306412	1016.190555970907	1492.911541492511	474.117102795378	1041.176698757225	944.022798496021	618.128104863094	1001.509785565509	961.308082637138	345.096879110061	1057.884251568172	737.794721108558	592.404454133058	964.302350665895	636.739645780249	653.129277853325	1033.221337067771	577.526274188245	573.195014444578	1023.951575060396	494.079131715973	577.522364246038	1093.090517462131	796.375491709426	370.395294797429	1057.031591638514	666.916995682579	289.619355604243	1167.470343144120	612.891427605060	344.700170708233	1192.817560847074	531.632281404981	334.641907186809	1148.784574421668	454.983669665161	327.855446919862	1031.616359009736	365.822579977178	280.197891838690	1069.532997121415	239.487727152732	332.063741679516	997.272384453500	407.157493284041	581.961574391128	926.067472326657	301.291598786771	639.909341736426	972.458206348284	208.622412147038	574.345706037319	842.380152948341	42.175276091725	536.160054187318	1013.369999117550	97.296976432147	573.450864088405	925.445002173982	36.507436337837	610.492138282863	1133.535528256474	45.710216765328	600.152211974340	920.098055237022	105.698048832771	371.779011613089	986.524259530111	90.249302143844	287.379638592844	1081.357884284094	136.360060339615	307.569819753071	1193.961946495749	64.194003526810	270.135875878560	868.844622598065	1094.756501375508	229.823148665143	880.606586436018	832.834070576225	228.052645539248	1131.624563214865	1096.298300419836	773.160226650477	1343.668740298520	950.961439758969	727.623989560089	
56	49.892142857143	807.372296288271	1015.091374055413	522.804866684497	981.951314757255	1433.543452483355	321.412529851406	1105.923978950073	1353.737144697706	462.983169089868	1059.689670762245	1434.073052873510	647.659802573227	1016.066739660966	1492.590133869434	473.656313118134	1041.042730152596	943.590319420034	617.744103932917	1000.783444201989	960.972602391939	344.683025128012	1054.902799039544	736.711187084654	591.342916612671	960.536263063568	636.573049595383	653.037846043999	1027.838833090658	576.578201300655	572.616884445434	1017.736710113271	493.421233139627	577.027208463138	1092.119777900115	796.743862569714	371.198505983968	1057.352995461849	667.208888198686	289.688401818294	1167.060068528376	613.592814679675	346.172463772890	1193.935485079725	534.343286942970	335.940276767285	1153.824047528485	457.309343158635	328.245483051477	1043.198795751064	361.356725513265	278.930378066995	1088.709860964939	237.243318107428	330.605941595869	990.559224921060	406.829602522587	581.530601612290	919.377622289086	301.210833232532	639.933746912691	964.896718997929	208.405259534260	573.976308952589	834.033095148174	42.233287379584	536.131498141521	1005.072058784042	97.176991660143	573.358229489858	917.086114384603	36.535032064618	610.476896039233	1125.234272408546	45.281587895673	600.212020759677	948.068827085586	93.938211495567	368.527161403812	1016.108003671110	83.124137380907	284.666951771977	1107.560479571329	134.943168808275	305.870943378319	1224.739062292787	70.127636123560	269.316471912016	861.389666723467	1096.468281939417	231.339211490164	858.986031638904	834.565697260129	230.856964801581	1139.752302097648	1098.203493987770	771.642540131907	1359.104395904242	966.621962367702	720.965613386666	
57	49.904000000000	807.330123834730	1015.136603739611	523.074374732414	981.214530907691	1433.133601948217	320.976065132227	1105.882812221138	1353.291286369110	461.894452327766	1060.787651275368	1433.742979689988	646.812874449622	1016.010297953578	1492.177019287785	473.105701730703	1041.003714594204	943.087997194130	617.225176638994	1000.204641808100	960.464402468385	344.133622814952	1052.048381946702	735.591055571926	590.284586075105	956.845386786446	636.382644649011	652.891194185048	1022.527066008297	575.638542557641	572.006037334131	1011.611163875009	492.746510716071	576.520383542466	1090.919260925215	796.502456581719	371.849845496436	1057.088209331047	666.984353877855	289.592025732971	1165.961006090315	613.529290565848	347.506790135380	1194.219008688227	536.436335490396	337.203939358264	1158.041033625146	459.319384035536	328.673465905108	1054.448246783314	356.950049787213	277.636863389825	1107.298262375871	235.591714612098	329.378548441355	983.894919879205	406.514489934459	581.140620602325	912.698229761100	301.147565508230	639.972893204818	957.330272373263	208.199855822517	573.628790196958	825.677930035194	42.305233918357	536.110350084986	996.767939910742	97.060208095195	573.271763239904	908.723140963816	36.555598218245	610.460816981520	1116.931328680048	44.878162324138	600.258839522408	975.927781273966	83.415407919443	365.481239536305	1045.506881356600	77.111018687135	282.337979093690	1133.206566512941	134.441331923422	304.588156193510	1254.557532839239	77.121525057151	269.333971371007	853.992873663454	1098.427916367055	232.588502151429	838.873569059838	837.258649482938	233.794346642902	1147.372570687088	1100.038188591849	769.907526189756	1373.166963636666	982.903906641612	714.092103487268	
